<svg xmlns="http://www.w3.org/2000/svg" version="1.1" xmlns:xlink="http://www.w3.org/1999/xlink" xmlns:svgjs="http://svgjs.dev/svgjs" viewBox="0 0 800 800" opacity="1"><defs><linearGradient gradientTransform="rotate(270)" x1="50%" y1="0%" x2="50%" y2="100%" id="sssquiggly-grad"><stop stop-color="hsla(166, 70%, 68%, 1.00)" stop-opacity="1" offset="0%"></stop><stop stop-color="hsla(330, 82%, 60%, 1.00)" stop-opacity="1" offset="100%"></stop></linearGradient></defs><g stroke-width="2" stroke="url(#sssquiggly-grad)" fill="none" stroke-linecap="round" transform="matrix(1,0,0,1,-5,103.97628021240234)"><path d="M10,10C19.821428571428573,16.875,35.41666666666667,47.583333333333336,57.142857142857146,43C78.86904761904762,38.416666666666664,90.47619047619048,-9.291666666666668,114.28571428571429,-12C138.0952380952381,-14.708333333333332,147.61904761904765,35.833333333333336,171.42857142857144,30C195.23809523809524,24.166666666666664,204.76190476190476,-40.208333333333336,228.57142857142858,-40C252.3809523809524,-39.791666666666664,261.9047619047619,28.5,285.7142857142857,31C309.5238095238095,33.5,319.0476190476191,-34.458333333333336,342.8571428571429,-28C366.6666666666667,-21.541666666666664,376.1904761904762,59.708333333333336,400,62C423.8095238095238,64.29166666666667,433.33333333333337,-16.375,457.14285714285717,-17C480.95238095238096,-17.625,490.47619047619054,56.916666666666664,514.2857142857143,59C538.0952380952382,61.083333333333336,547.6190476190477,-4.916666666666666,571.4285714285714,-7C595.2380952380952,-9.083333333333334,604.7619047619047,52.958333333333336,628.5714285714286,49C652.3809523809524,45.041666666666664,661.9047619047619,-25.375,685.7142857142858,-26C709.5238095238096,-26.625,719.047619047619,39.125,742.8571428571429,46C766.6666666666667,52.875,788.0952380952381,15.125,800,7"></path><path d="M10,10C19.821428571428573,16.875,35.41666666666667,47.583333333333336,57.142857142857146,43C78.86904761904762,38.416666666666664,90.47619047619048,-9.291666666666668,114.28571428571429,-12C138.0952380952381,-14.708333333333332,147.61904761904765,35.833333333333336,171.42857142857144,30C195.23809523809524,24.166666666666664,204.76190476190476,-40.208333333333336,228.57142857142858,-40C252.3809523809524,-39.791666666666664,261.9047619047619,28.5,285.7142857142857,31C309.5238095238095,33.5,319.0476190476191,-34.458333333333336,342.8571428571429,-28C366.6666666666667,-21.541666666666664,376.1904761904762,59.708333333333336,400,62C423.8095238095238,64.29166666666667,433.33333333333337,-16.375,457.14285714285717,-17C480.95238095238096,-17.625,490.47619047619054,56.916666666666664,514.2857142857143,59C538.0952380952382,61.083333333333336,547.6190476190477,-4.916666666666666,571.4285714285714,-7C595.2380952380952,-9.083333333333334,604.7619047619047,52.958333333333336,628.5714285714286,49C652.3809523809524,45.041666666666664,661.9047619047619,-25.375,685.7142857142858,-26C709.5238095238096,-26.625,719.047619047619,39.125,742.8571428571429,46C766.6666666666667,52.875,788.0952380952381,15.125,800,7" transform="matrix(1,0,0,1,0,570)"></path><path d="M10,10C19.821428571428573,16.875,35.41666666666667,47.583333333333336,57.142857142857146,43C78.86904761904762,38.416666666666664,90.47619047619048,-9.291666666666668,114.28571428571429,-12C138.0952380952381,-14.708333333333332,147.61904761904765,35.833333333333336,171.42857142857144,30C195.23809523809524,24.166666666666664,204.76190476190476,-40.208333333333336,228.57142857142858,-40C252.3809523809524,-39.791666666666664,261.9047619047619,28.5,285.7142857142857,31C309.5238095238095,33.5,319.0476190476191,-34.458333333333336,342.8571428571429,-28C366.6666666666667,-21.541666666666664,376.1904761904762,59.708333333333336,400,62C423.8095238095238,64.29166666666667,433.33333333333337,-16.375,457.14285714285717,-17C480.95238095238096,-17.625,490.47619047619054,56.916666666666664,514.2857142857143,59C538.0952380952382,61.083333333333336,547.6190476190477,-4.916666666666666,571.4285714285714,-7C595.2380952380952,-9.083333333333334,604.7619047619047,52.958333333333336,628.5714285714286,49C652.3809523809524,45.041666666666664,661.9047619047619,-25.375,685.7142857142858,-26C709.5238095238096,-26.625,719.047619047619,39.125,742.8571428571429,46C766.6666666666667,52.875,788.0952380952381,15.125,800,7" transform="matrix(1,0,0,1,0,540)"></path><path d="M10,10C19.821428571428573,16.875,35.41666666666667,47.583333333333336,57.142857142857146,43C78.86904761904762,38.416666666666664,90.47619047619048,-9.291666666666668,114.28571428571429,-12C138.0952380952381,-14.708333333333332,147.61904761904765,35.833333333333336,171.42857142857144,30C195.23809523809524,24.166666666666664,204.76190476190476,-40.208333333333336,228.57142857142858,-40C252.3809523809524,-39.791666666666664,261.9047619047619,28.5,285.7142857142857,31C309.5238095238095,33.5,319.0476190476191,-34.458333333333336,342.8571428571429,-28C366.6666666666667,-21.541666666666664,376.1904761904762,59.708333333333336,400,62C423.8095238095238,64.29166666666667,433.33333333333337,-16.375,457.14285714285717,-17C480.95238095238096,-17.625,490.47619047619054,56.916666666666664,514.2857142857143,59C538.0952380952382,61.083333333333336,547.6190476190477,-4.916666666666666,571.4285714285714,-7C595.2380952380952,-9.083333333333334,604.7619047619047,52.958333333333336,628.5714285714286,49C652.3809523809524,45.041666666666664,661.9047619047619,-25.375,685.7142857142858,-26C709.5238095238096,-26.625,719.047619047619,39.125,742.8571428571429,46C766.6666666666667,52.875,788.0952380952381,15.125,800,7" transform="matrix(1,0,0,1,0,510)"></path><path d="M10,10C19.821428571428573,16.875,35.41666666666667,47.583333333333336,57.142857142857146,43C78.86904761904762,38.416666666666664,90.47619047619048,-9.291666666666668,114.28571428571429,-12C138.0952380952381,-14.708333333333332,147.61904761904765,35.833333333333336,171.42857142857144,30C195.23809523809524,24.166666666666664,204.76190476190476,-40.208333333333336,228.57142857142858,-40C252.3809523809524,-39.791666666666664,261.9047619047619,28.5,285.7142857142857,31C309.5238095238095,33.5,319.0476190476191,-34.458333333333336,342.8571428571429,-28C366.6666666666667,-21.541666666666664,376.1904761904762,59.708333333333336,400,62C423.8095238095238,64.29166666666667,433.33333333333337,-16.375,457.14285714285717,-17C480.95238095238096,-17.625,490.47619047619054,56.916666666666664,514.2857142857143,59C538.0952380952382,61.083333333333336,547.6190476190477,-4.916666666666666,571.4285714285714,-7C595.2380952380952,-9.083333333333334,604.7619047619047,52.958333333333336,628.5714285714286,49C652.3809523809524,45.041666666666664,661.9047619047619,-25.375,685.7142857142858,-26C709.5238095238096,-26.625,719.047619047619,39.125,742.8571428571429,46C766.6666666666667,52.875,788.0952380952381,15.125,800,7" transform="matrix(1,0,0,1,0,480)"></path><path d="M10,10C19.821428571428573,16.875,35.41666666666667,47.583333333333336,57.142857142857146,43C78.86904761904762,38.416666666666664,90.47619047619048,-9.291666666666668,114.28571428571429,-12C138.0952380952381,-14.708333333333332,147.61904761904765,35.833333333333336,171.42857142857144,30C195.23809523809524,24.166666666666664,204.76190476190476,-40.208333333333336,228.57142857142858,-40C252.3809523809524,-39.791666666666664,261.9047619047619,28.5,285.7142857142857,31C309.5238095238095,33.5,319.0476190476191,-34.458333333333336,342.8571428571429,-28C366.6666666666667,-21.541666666666664,376.1904761904762,59.708333333333336,400,62C423.8095238095238,64.29166666666667,433.33333333333337,-16.375,457.14285714285717,-17C480.95238095238096,-17.625,490.47619047619054,56.916666666666664,514.2857142857143,59C538.0952380952382,61.083333333333336,547.6190476190477,-4.916666666666666,571.4285714285714,-7C595.2380952380952,-9.083333333333334,604.7619047619047,52.958333333333336,628.5714285714286,49C652.3809523809524,45.041666666666664,661.9047619047619,-25.375,685.7142857142858,-26C709.5238095238096,-26.625,719.047619047619,39.125,742.8571428571429,46C766.6666666666667,52.875,788.0952380952381,15.125,800,7" transform="matrix(1,0,0,1,0,450)"></path><path d="M10,10C19.821428571428573,16.875,35.41666666666667,47.583333333333336,57.142857142857146,43C78.86904761904762,38.416666666666664,90.47619047619048,-9.291666666666668,114.28571428571429,-12C138.0952380952381,-14.708333333333332,147.61904761904765,35.833333333333336,171.42857142857144,30C195.23809523809524,24.166666666666664,204.76190476190476,-40.208333333333336,228.57142857142858,-40C252.3809523809524,-39.791666666666664,261.9047619047619,28.5,285.7142857142857,31C309.5238095238095,33.5,319.0476190476191,-34.458333333333336,342.8571428571429,-28C366.6666666666667,-21.541666666666664,376.1904761904762,59.708333333333336,400,62C423.8095238095238,64.29166666666667,433.33333333333337,-16.375,457.14285714285717,-17C480.95238095238096,-17.625,490.47619047619054,56.916666666666664,514.2857142857143,59C538.0952380952382,61.083333333333336,547.6190476190477,-4.916666666666666,571.4285714285714,-7C595.2380952380952,-9.083333333333334,604.7619047619047,52.958333333333336,628.5714285714286,49C652.3809523809524,45.041666666666664,661.9047619047619,-25.375,685.7142857142858,-26C709.5238095238096,-26.625,719.047619047619,39.125,742.8571428571429,46C766.6666666666667,52.875,788.0952380952381,15.125,800,7" transform="matrix(1,0,0,1,0,420)"></path><path d="M10,10C19.821428571428573,16.875,35.41666666666667,47.583333333333336,57.142857142857146,43C78.86904761904762,38.416666666666664,90.47619047619048,-9.291666666666668,114.28571428571429,-12C138.0952380952381,-14.708333333333332,147.61904761904765,35.833333333333336,171.42857142857144,30C195.23809523809524,24.166666666666664,204.76190476190476,-40.208333333333336,228.57142857142858,-40C252.3809523809524,-39.791666666666664,261.9047619047619,28.5,285.7142857142857,31C309.5238095238095,33.5,319.0476190476191,-34.458333333333336,342.8571428571429,-28C366.6666666666667,-21.541666666666664,376.1904761904762,59.708333333333336,400,62C423.8095238095238,64.29166666666667,433.33333333333337,-16.375,457.14285714285717,-17C480.95238095238096,-17.625,490.47619047619054,56.916666666666664,514.2857142857143,59C538.0952380952382,61.083333333333336,547.6190476190477,-4.916666666666666,571.4285714285714,-7C595.2380952380952,-9.083333333333334,604.7619047619047,52.958333333333336,628.5714285714286,49C652.3809523809524,45.041666666666664,661.9047619047619,-25.375,685.7142857142858,-26C709.5238095238096,-26.625,719.047619047619,39.125,742.8571428571429,46C766.6666666666667,52.875,788.0952380952381,15.125,800,7" transform="matrix(1,0,0,1,0,390)"></path><path d="M10,10C19.821428571428573,16.875,35.41666666666667,47.583333333333336,57.142857142857146,43C78.86904761904762,38.416666666666664,90.47619047619048,-9.291666666666668,114.28571428571429,-12C138.0952380952381,-14.708333333333332,147.61904761904765,35.833333333333336,171.42857142857144,30C195.23809523809524,24.166666666666664,204.76190476190476,-40.208333333333336,228.57142857142858,-40C252.3809523809524,-39.791666666666664,261.9047619047619,28.5,285.7142857142857,31C309.5238095238095,33.5,319.0476190476191,-34.458333333333336,342.8571428571429,-28C366.6666666666667,-21.541666666666664,376.1904761904762,59.708333333333336,400,62C423.8095238095238,64.29166666666667,433.33333333333337,-16.375,457.14285714285717,-17C480.95238095238096,-17.625,490.47619047619054,56.916666666666664,514.2857142857143,59C538.0952380952382,61.083333333333336,547.6190476190477,-4.916666666666666,571.4285714285714,-7C595.2380952380952,-9.083333333333334,604.7619047619047,52.958333333333336,628.5714285714286,49C652.3809523809524,45.041666666666664,661.9047619047619,-25.375,685.7142857142858,-26C709.5238095238096,-26.625,719.047619047619,39.125,742.8571428571429,46C766.6666666666667,52.875,788.0952380952381,15.125,800,7" transform="matrix(1,0,0,1,0,360)"></path><path d="M10,10C19.821428571428573,16.875,35.41666666666667,47.583333333333336,57.142857142857146,43C78.86904761904762,38.416666666666664,90.47619047619048,-9.291666666666668,114.28571428571429,-12C138.0952380952381,-14.708333333333332,147.61904761904765,35.833333333333336,171.42857142857144,30C195.23809523809524,24.166666666666664,204.76190476190476,-40.208333333333336,228.57142857142858,-40C252.3809523809524,-39.791666666666664,261.9047619047619,28.5,285.7142857142857,31C309.5238095238095,33.5,319.0476190476191,-34.458333333333336,342.8571428571429,-28C366.6666666666667,-21.541666666666664,376.1904761904762,59.708333333333336,400,62C423.8095238095238,64.29166666666667,433.33333333333337,-16.375,457.14285714285717,-17C480.95238095238096,-17.625,490.47619047619054,56.916666666666664,514.2857142857143,59C538.0952380952382,61.083333333333336,547.6190476190477,-4.916666666666666,571.4285714285714,-7C595.2380952380952,-9.083333333333334,604.7619047619047,52.958333333333336,628.5714285714286,49C652.3809523809524,45.041666666666664,661.9047619047619,-25.375,685.7142857142858,-26C709.5238095238096,-26.625,719.047619047619,39.125,742.8571428571429,46C766.6666666666667,52.875,788.0952380952381,15.125,800,7" transform="matrix(1,0,0,1,0,330)"></path><path d="M10,10C19.821428571428573,16.875,35.41666666666667,47.583333333333336,57.142857142857146,43C78.86904761904762,38.416666666666664,90.47619047619048,-9.291666666666668,114.28571428571429,-12C138.0952380952381,-14.708333333333332,147.61904761904765,35.833333333333336,171.42857142857144,30C195.23809523809524,24.166666666666664,204.76190476190476,-40.208333333333336,228.57142857142858,-40C252.3809523809524,-39.791666666666664,261.9047619047619,28.5,285.7142857142857,31C309.5238095238095,33.5,319.0476190476191,-34.458333333333336,342.8571428571429,-28C366.6666666666667,-21.541666666666664,376.1904761904762,59.708333333333336,400,62C423.8095238095238,64.29166666666667,433.33333333333337,-16.375,457.14285714285717,-17C480.95238095238096,-17.625,490.47619047619054,56.916666666666664,514.2857142857143,59C538.0952380952382,61.083333333333336,547.6190476190477,-4.916666666666666,571.4285714285714,-7C595.2380952380952,-9.083333333333334,604.7619047619047,52.958333333333336,628.5714285714286,49C652.3809523809524,45.041666666666664,661.9047619047619,-25.375,685.7142857142858,-26C709.5238095238096,-26.625,719.047619047619,39.125,742.8571428571429,46C766.6666666666667,52.875,788.0952380952381,15.125,800,7" transform="matrix(1,0,0,1,0,300)"></path><path d="M10,10C19.821428571428573,16.875,35.41666666666667,47.583333333333336,57.142857142857146,43C78.86904761904762,38.416666666666664,90.47619047619048,-9.291666666666668,114.28571428571429,-12C138.0952380952381,-14.708333333333332,147.61904761904765,35.833333333333336,171.42857142857144,30C195.23809523809524,24.166666666666664,204.76190476190476,-40.208333333333336,228.57142857142858,-40C252.3809523809524,-39.791666666666664,261.9047619047619,28.5,285.7142857142857,31C309.5238095238095,33.5,319.0476190476191,-34.458333333333336,342.8571428571429,-28C366.6666666666667,-21.541666666666664,376.1904761904762,59.708333333333336,400,62C423.8095238095238,64.29166666666667,433.33333333333337,-16.375,457.14285714285717,-17C480.95238095238096,-17.625,490.47619047619054,56.916666666666664,514.2857142857143,59C538.0952380952382,61.083333333333336,547.6190476190477,-4.916666666666666,571.4285714285714,-7C595.2380952380952,-9.083333333333334,604.7619047619047,52.958333333333336,628.5714285714286,49C652.3809523809524,45.041666666666664,661.9047619047619,-25.375,685.7142857142858,-26C709.5238095238096,-26.625,719.047619047619,39.125,742.8571428571429,46C766.6666666666667,52.875,788.0952380952381,15.125,800,7" transform="matrix(1,0,0,1,0,270)"></path><path d="M10,10C19.821428571428573,16.875,35.41666666666667,47.583333333333336,57.142857142857146,43C78.86904761904762,38.416666666666664,90.47619047619048,-9.291666666666668,114.28571428571429,-12C138.0952380952381,-14.708333333333332,147.61904761904765,35.833333333333336,171.42857142857144,30C195.23809523809524,24.166666666666664,204.76190476190476,-40.208333333333336,228.57142857142858,-40C252.3809523809524,-39.791666666666664,261.9047619047619,28.5,285.7142857142857,31C309.5238095238095,33.5,319.0476190476191,-34.458333333333336,342.8571428571429,-28C366.6666666666667,-21.541666666666664,376.1904761904762,59.708333333333336,400,62C423.8095238095238,64.29166666666667,433.33333333333337,-16.375,457.14285714285717,-17C480.95238095238096,-17.625,490.47619047619054,56.916666666666664,514.2857142857143,59C538.0952380952382,61.083333333333336,547.6190476190477,-4.916666666666666,571.4285714285714,-7C595.2380952380952,-9.083333333333334,604.7619047619047,52.958333333333336,628.5714285714286,49C652.3809523809524,45.041666666666664,661.9047619047619,-25.375,685.7142857142858,-26C709.5238095238096,-26.625,719.047619047619,39.125,742.8571428571429,46C766.6666666666667,52.875,788.0952380952381,15.125,800,7" transform="matrix(1,0,0,1,0,240)"></path><path d="M10,10C19.821428571428573,16.875,35.41666666666667,47.583333333333336,57.142857142857146,43C78.86904761904762,38.416666666666664,90.47619047619048,-9.291666666666668,114.28571428571429,-12C138.0952380952381,-14.708333333333332,147.61904761904765,35.833333333333336,171.42857142857144,30C195.23809523809524,24.166666666666664,204.76190476190476,-40.208333333333336,228.57142857142858,-40C252.3809523809524,-39.791666666666664,261.9047619047619,28.5,285.7142857142857,31C309.5238095238095,33.5,319.0476190476191,-34.458333333333336,342.8571428571429,-28C366.6666666666667,-21.541666666666664,376.1904761904762,59.708333333333336,400,62C423.8095238095238,64.29166666666667,433.33333333333337,-16.375,457.14285714285717,-17C480.95238095238096,-17.625,490.47619047619054,56.916666666666664,514.2857142857143,59C538.0952380952382,61.083333333333336,547.6190476190477,-4.916666666666666,571.4285714285714,-7C595.2380952380952,-9.083333333333334,604.7619047619047,52.958333333333336,628.5714285714286,49C652.3809523809524,45.041666666666664,661.9047619047619,-25.375,685.7142857142858,-26C709.5238095238096,-26.625,719.047619047619,39.125,742.8571428571429,46C766.6666666666667,52.875,788.0952380952381,15.125,800,7" transform="matrix(1,0,0,1,0,210)"></path><path d="M10,10C19.821428571428573,16.875,35.41666666666667,47.583333333333336,57.142857142857146,43C78.86904761904762,38.416666666666664,90.47619047619048,-9.291666666666668,114.28571428571429,-12C138.0952380952381,-14.708333333333332,147.61904761904765,35.833333333333336,171.42857142857144,30C195.23809523809524,24.166666666666664,204.76190476190476,-40.208333333333336,228.57142857142858,-40C252.3809523809524,-39.791666666666664,261.9047619047619,28.5,285.7142857142857,31C309.5238095238095,33.5,319.0476190476191,-34.458333333333336,342.8571428571429,-28C366.6666666666667,-21.541666666666664,376.1904761904762,59.708333333333336,400,62C423.8095238095238,64.29166666666667,433.33333333333337,-16.375,457.14285714285717,-17C480.95238095238096,-17.625,490.47619047619054,56.916666666666664,514.2857142857143,59C538.0952380952382,61.083333333333336,547.6190476190477,-4.916666666666666,571.4285714285714,-7C595.2380952380952,-9.083333333333334,604.7619047619047,52.958333333333336,628.5714285714286,49C652.3809523809524,45.041666666666664,661.9047619047619,-25.375,685.7142857142858,-26C709.5238095238096,-26.625,719.047619047619,39.125,742.8571428571429,46C766.6666666666667,52.875,788.0952380952381,15.125,800,7" transform="matrix(1,0,0,1,0,180)"></path><path d="M10,10C19.821428571428573,16.875,35.41666666666667,47.583333333333336,57.142857142857146,43C78.86904761904762,38.416666666666664,90.47619047619048,-9.291666666666668,114.28571428571429,-12C138.0952380952381,-14.708333333333332,147.61904761904765,35.833333333333336,171.42857142857144,30C195.23809523809524,24.166666666666664,204.76190476190476,-40.208333333333336,228.57142857142858,-40C252.3809523809524,-39.791666666666664,261.9047619047619,28.5,285.7142857142857,31C309.5238095238095,33.5,319.0476190476191,-34.458333333333336,342.8571428571429,-28C366.6666666666667,-21.541666666666664,376.1904761904762,59.708333333333336,400,62C423.8095238095238,64.29166666666667,433.33333333333337,-16.375,457.14285714285717,-17C480.95238095238096,-17.625,490.47619047619054,56.916666666666664,514.2857142857143,59C538.0952380952382,61.083333333333336,547.6190476190477,-4.916666666666666,571.4285714285714,-7C595.2380952380952,-9.083333333333334,604.7619047619047,52.958333333333336,628.5714285714286,49C652.3809523809524,45.041666666666664,661.9047619047619,-25.375,685.7142857142858,-26C709.5238095238096,-26.625,719.047619047619,39.125,742.8571428571429,46C766.6666666666667,52.875,788.0952380952381,15.125,800,7" transform="matrix(1,0,0,1,0,150)"></path><path d="M10,10C19.821428571428573,16.875,35.41666666666667,47.583333333333336,57.142857142857146,43C78.86904761904762,38.416666666666664,90.47619047619048,-9.291666666666668,114.28571428571429,-12C138.0952380952381,-14.708333333333332,147.61904761904765,35.833333333333336,171.42857142857144,30C195.23809523809524,24.166666666666664,204.76190476190476,-40.208333333333336,228.57142857142858,-40C252.3809523809524,-39.791666666666664,261.9047619047619,28.5,285.7142857142857,31C309.5238095238095,33.5,319.0476190476191,-34.458333333333336,342.8571428571429,-28C366.6666666666667,-21.541666666666664,376.1904761904762,59.708333333333336,400,62C423.8095238095238,64.29166666666667,433.33333333333337,-16.375,457.14285714285717,-17C480.95238095238096,-17.625,490.47619047619054,56.916666666666664,514.2857142857143,59C538.0952380952382,61.083333333333336,547.6190476190477,-4.916666666666666,571.4285714285714,-7C595.2380952380952,-9.083333333333334,604.7619047619047,52.958333333333336,628.5714285714286,49C652.3809523809524,45.041666666666664,661.9047619047619,-25.375,685.7142857142858,-26C709.5238095238096,-26.625,719.047619047619,39.125,742.8571428571429,46C766.6666666666667,52.875,788.0952380952381,15.125,800,7" transform="matrix(1,0,0,1,0,120)"></path><path d="M10,10C19.821428571428573,16.875,35.41666666666667,47.583333333333336,57.142857142857146,43C78.86904761904762,38.416666666666664,90.47619047619048,-9.291666666666668,114.28571428571429,-12C138.0952380952381,-14.708333333333332,147.61904761904765,35.833333333333336,171.42857142857144,30C195.23809523809524,24.166666666666664,204.76190476190476,-40.208333333333336,228.57142857142858,-40C252.3809523809524,-39.791666666666664,261.9047619047619,28.5,285.7142857142857,31C309.5238095238095,33.5,319.0476190476191,-34.458333333333336,342.8571428571429,-28C366.6666666666667,-21.541666666666664,376.1904761904762,59.708333333333336,400,62C423.8095238095238,64.29166666666667,433.33333333333337,-16.375,457.14285714285717,-17C480.95238095238096,-17.625,490.47619047619054,56.916666666666664,514.2857142857143,59C538.0952380952382,61.083333333333336,547.6190476190477,-4.916666666666666,571.4285714285714,-7C595.2380952380952,-9.083333333333334,604.7619047619047,52.958333333333336,628.5714285714286,49C652.3809523809524,45.041666666666664,661.9047619047619,-25.375,685.7142857142858,-26C709.5238095238096,-26.625,719.047619047619,39.125,742.8571428571429,46C766.6666666666667,52.875,788.0952380952381,15.125,800,7" transform="matrix(1,0,0,1,0,90)"></path><path d="M10,10C19.821428571428573,16.875,35.41666666666667,47.583333333333336,57.142857142857146,43C78.86904761904762,38.416666666666664,90.47619047619048,-9.291666666666668,114.28571428571429,-12C138.0952380952381,-14.708333333333332,147.61904761904765,35.833333333333336,171.42857142857144,30C195.23809523809524,24.166666666666664,204.76190476190476,-40.208333333333336,228.57142857142858,-40C252.3809523809524,-39.791666666666664,261.9047619047619,28.5,285.7142857142857,31C309.5238095238095,33.5,319.0476190476191,-34.458333333333336,342.8571428571429,-28C366.6666666666667,-21.541666666666664,376.1904761904762,59.708333333333336,400,62C423.8095238095238,64.29166666666667,433.33333333333337,-16.375,457.14285714285717,-17C480.95238095238096,-17.625,490.47619047619054,56.916666666666664,514.2857142857143,59C538.0952380952382,61.083333333333336,547.6190476190477,-4.916666666666666,571.4285714285714,-7C595.2380952380952,-9.083333333333334,604.7619047619047,52.958333333333336,628.5714285714286,49C652.3809523809524,45.041666666666664,661.9047619047619,-25.375,685.7142857142858,-26C709.5238095238096,-26.625,719.047619047619,39.125,742.8571428571429,46C766.6666666666667,52.875,788.0952380952381,15.125,800,7" transform="matrix(1,0,0,1,0,60)"></path><path d="M10,10C19.821428571428573,16.875,35.41666666666667,47.583333333333336,57.142857142857146,43C78.86904761904762,38.416666666666664,90.47619047619048,-9.291666666666668,114.28571428571429,-12C138.0952380952381,-14.708333333333332,147.61904761904765,35.833333333333336,171.42857142857144,30C195.23809523809524,24.166666666666664,204.76190476190476,-40.208333333333336,228.57142857142858,-40C252.3809523809524,-39.791666666666664,261.9047619047619,28.5,285.7142857142857,31C309.5238095238095,33.5,319.0476190476191,-34.458333333333336,342.8571428571429,-28C366.6666666666667,-21.541666666666664,376.1904761904762,59.708333333333336,400,62C423.8095238095238,64.29166666666667,433.33333333333337,-16.375,457.14285714285717,-17C480.95238095238096,-17.625,490.47619047619054,56.916666666666664,514.2857142857143,59C538.0952380952382,61.083333333333336,547.6190476190477,-4.916666666666666,571.4285714285714,-7C595.2380952380952,-9.083333333333334,604.7619047619047,52.958333333333336,628.5714285714286,49C652.3809523809524,45.041666666666664,661.9047619047619,-25.375,685.7142857142858,-26C709.5238095238096,-26.625,719.047619047619,39.125,742.8571428571429,46C766.6666666666667,52.875,788.0952380952381,15.125,800,7" transform="matrix(1,0,0,1,0,30)"></path></g></svg>